<svg xmlns="http://www.w3.org/2000/svg" viewBox="0 0 64 64"><title>2</title><g id="Layer_99" data-name="Layer 99"><path d="M55.21,35.38l2.16-2.16A15.8,15.8,0,1,0,35,10.87l-3,3-3-3A15.8,15.8,0,0,0,6.63,33.22l24,24a2,2,0,0,0,2.83,0l3.91-3.91A12.69,12.69,0,1,0,55.21,35.38ZM32,52.93,9.46,30.39A11.8,11.8,0,1,1,26.15,13.7l4.44,4.44a2,2,0,0,0,2.83,0h0l4.44-4.44A11.8,11.8,0,1,1,54.55,30.39l-2.87,2.87A12.68,12.68,0,0,0,35.2,49.73Zm15,.83a8.71,8.71,0,1,1,8.71-8.71A8.72,8.72,0,0,1,47,53.76Z"></path><path d="M49,43.05V40a2,2,0,0,0-4,0v3H42a2,2,0,0,0,0,4h3v3a2,2,0,0,0,4,0v-3h3a2,2,0,0,0,0-4Z"></path></g></svg>