<?xml version="1.0" encoding="UTF-8" standalone="no"?> <svg id="Layer_1" data-name="Layer 1" xmlns="http://www.w3.org/2000/svg" viewBox="0 0 64 64"><path d="M9.7,61.955a1,1,0,0,0,1.252-.659L12.7,55.68a4.706,4.706,0,0,1,.407,4.873A1,1,0,0,0,14,62a.989.989,0,0,0,.394-.081,10.6,10.6,0,0,0,6.287-11.593,1,1,0,0,0-1.971.342,8.6,8.6,0,0,1-3.118,8.23,6.722,6.722,0,0,0-2.337-5.568,5.631,5.631,0,0,1-1.584-6.316l5.015-9.32,4.537,9.734a.937.937,0,0,0,.058.108,13.1,13.1,0,0,1,1.72,6.8c.033,1.211,1.437,1.752,2.464,2.147l.164.064a3.8,3.8,0,0,0,.393.474A5.412,5.412,0,0,0,31.41,62h1.18a5.412,5.412,0,0,0,5.388-4.983,3.892,3.892,0,0,0,.334-.373l.1-.042c1.077-.444,2.554-1.052,2.587-2.27a13.1,13.1,0,0,1,1.72-6.8.937.937,0,0,0,.058-.108l3.58-7.682L53.045,61.3a1,1,0,1,0,1.91-.592L47.614,37.049l.267-.572a13.992,13.992,0,0,0,2.095-7.367.934.934,0,0,0-.016-.175l-.226-1.268a.974.974,0,0,0-.273-1.54l-1.405-7.9c2.571-3.881,5.515-11.761-.475-16.04a1,1,0,0,0-1.328.149L40.412,8.907q-.238-.468-.52-.93C39.154,4.381,36.052,2,32,2a8.565,8.565,0,0,0-6.38,2.631A6.44,6.44,0,0,0,24.205,8.57h0l-.026.273c-.021.217-.047.432-.072.647l-6.36-7.156a1,1,0,0,0-1.328-.149c-3.263,2.331-4.279,6.045-2.965,10.6a.988.988,0,0,0-.8-.029,1,1,0,0,0-.579.659c-.6,2.167.586,5.077,1.378,6.454a9.17,9.17,0,0,0,1.8,2.229l-.717,4.033a.974.974,0,0,0-.273,1.54l-.226,1.268a.934.934,0,0,0-.016.175,13.988,13.988,0,0,0,1.559,6.413l-5.7,10.6c-.018.033-.033.067-.048.1a7.631,7.631,0,0,0,1.287,7.792L9.045,60.7A1,1,0,0,0,9.7,61.955Zm17.332-7.071a1.656,1.656,0,0,1,.463-1.549l.451,2.707A1.827,1.827,0,0,1,27.035,54.884Zm9.93,0a1.828,1.828,0,0,1-.914,1.157l.451-2.707A1.657,1.657,0,0,1,36.965,54.885ZM16.886,4.377l6.553,7.372a4.708,4.708,0,0,1-1.631,1.745,6.187,6.187,0,0,1-5.828.456C14.745,10.945,14.019,7.018,16.886,4.377Zm-1.7,14.491a10.187,10.187,0,0,1-1.24-3.592c2.581,1.222,5.712,1.953,8.932-.094a6.661,6.661,0,0,0,2.639-3.131c.015-.029.024-.059.036-.088a8.023,8.023,0,0,0,.5-1.891c.048-.342.081-.689.114-1.036l.026-.267A4.651,4.651,0,0,1,27.1,5.975,6.655,6.655,0,0,1,32,4c3.253,0,5.611,1.873,6.006,4.772a12.653,12.653,0,0,1-2.612,9.5C32.241,22.18,27.458,23,24,23,21.6,23,17.257,22.463,15.19,18.868ZM24,25c3.894,0,9.3-.949,12.95-5.468a14.429,14.429,0,0,0,2.828-6.07A16.881,16.881,0,0,1,39,20.987c-.735,2.288-2.575,6.255-6.63,7.123a10.173,10.173,0,0,1-3.8.079,14.734,14.734,0,0,0,1.213-1.466,1,1,0,0,0-1.627-1.164,15.234,15.234,0,0,1-2.064,2.272,1,1,0,0,0,.133,1.57,7.377,7.377,0,0,0,3.937.93,13.061,13.061,0,0,0,2.629-.265c3.735-.8,6.617-3.806,8.116-8.466a17.676,17.676,0,0,0,.345-10.63l5.861-6.594c1.951,1.792,2.477,4.374,1.56,7.686a19.983,19.983,0,0,1-2.493,5.365.994.994,0,0,0-.165.748L47.43,26.13A12.037,12.037,0,0,0,40.2,30.4a1,1,0,0,0,.353,1.5A11.347,11.347,0,0,0,45,33a1,1,0,0,0,1-1V28.566a8.572,8.572,0,0,1,1.781-.466l.2,1.1a12,12,0,0,1-1.824,6.274.8.8,0,0,0-.058.108l-5.1,10.951a14.868,14.868,0,0,0-1.984,7.553c-.008.006-.023.013-.031.02a3.525,3.525,0,0,0-1.754-2.7A3.054,3.054,0,0,0,35.711,51a1,1,0,0,0-.986.835l-1,6a.984.984,0,0,0,1.334,1.094A3.394,3.394,0,0,1,32.59,60H31.41a3.394,3.394,0,0,1-2.469-1.071.991.991,0,0,0,1.334-1.094l-1-6A1,1,0,0,0,28.289,51a3.054,3.054,0,0,0-1.51.405,3.525,3.525,0,0,0-1.752,2.683c-.009-.007-.024-.014-.033-.02a14.862,14.862,0,0,0-1.984-7.539l-5.1-10.951a.8.8,0,0,0-.058-.108A12,12,0,0,1,16.024,29.2l.2-1.1A8.572,8.572,0,0,1,18,28.566V32a1,1,0,0,0,1,1A11.347,11.347,0,0,0,23.447,31.9a1,1,0,0,0,.353-1.5,12.037,12.037,0,0,0-7.23-4.27l.492-2.768A14.062,14.062,0,0,0,24,25Zm20,5.908a9.245,9.245,0,0,1-1.257-.3A11.308,11.308,0,0,1,44,29.622ZM20,29.622a11.308,11.308,0,0,1,1.257.986,9.245,9.245,0,0,1-1.257.3Z"/></svg>