<?xml version="1.0" encoding="utf-8"?>
<!-- Generator: Adobe Illustrator 25.4.1, SVG Export Plug-In . SVG Version: 6.00 Build 0)  -->
<svg version="1.1" id="outline" xmlns="http://www.w3.org/2000/svg" xmlns:xlink="http://www.w3.org/1999/xlink" x="0px" y="0px"
	 viewBox="0 0 512 512" enable-background="new 0 0 512 512" xml:space="preserve">
<g>
	<path d="M451.879,241.274c3.771-25.334,0.236-50.852-10.417-75.297l28.199-21.932c17.559-13.655,27.629-34.259,27.629-56.525
		c0-19.09-7.441-37.044-20.953-50.557c-14.511-14.51-34.57-22.103-55.055-20.824c-20.476,1.274-39.442,11.295-52.038,27.491
		l-21.928,28.202c-24.447-10.654-49.964-14.188-75.297-10.416c-17.791-23.107-45.969-36.123-77.683-35.695
		c-10.094,0.13-20.219,1.938-30.095,5.373c-9.807,3.41-19.079,8.334-27.567,14.638l-32.811,24.409
		c-2.588,1.926-3.767,5.218-2.988,8.349c0.777,3.13,3.36,5.487,6.549,5.978l50.296,7.729c10.874,1.678,21.061,5.372,29.958,10.791
		c-4.098,3.574-8.158,7.341-12.166,11.348c-6.418,6.418-12.686,13.372-18.624,20.662c-12.807,15.684-24.288,33.117-34,51.427
		c-16.534-2.056-33.268,0.043-48.752,6.181c-8.683,3.448-16.601,8.326-23.535,14.499c-6.948,6.184-12.695,13.47-17.082,21.656
		l-16.57,30.91c-1.472,2.745-1.216,6.095,0.655,8.585c1.53,2.036,3.912,3.194,6.395,3.194c0.555,0,1.114-0.058,1.67-0.176
		l46.411-9.9c7.611-1.626,15.343-2.158,23.079-1.619c-7.302,31.786-7.796,61.392-1.321,86.364c1.721,6.64,3.932,12.898,6.6,18.773
		c-10.762,6.924-23.013,11.297-35.806,12.717l-19.109,2.131c-3.523,0.394-6.368,3.059-6.989,6.549
		c-0.622,3.49,1.128,6.974,4.299,8.559l27.091,13.54c13.933,6.963,29.136,10.468,44.368,10.468c11.509,0,23.033-2.008,34.039-6.031
		c5.896,2.682,12.178,4.903,18.844,6.631c11.68,3.028,24.372,4.536,37.826,4.536c15.314,0,31.619-1.962,48.54-5.85
		c0.536,7.725,0.001,15.453-1.625,23.07l-9.9,46.41c-0.649,3.047,0.528,6.193,3.019,8.064c1.414,1.062,3.105,1.604,4.807,1.604
		c1.294,0,2.593-0.313,3.779-0.949l30.908-16.569c8.188-4.388,15.474-10.135,21.657-17.083c6.18-6.943,11.059-14.862,14.501-23.538
		c6.137-15.468,8.236-32.201,6.181-48.743c18.311-9.711,35.742-21.19,51.422-33.995c7.296-5.943,14.25-12.212,20.67-18.631
		c4.007-4.007,7.773-8.067,11.347-12.165c5.427,8.906,9.119,19.095,10.787,29.959l7.73,50.3c0.49,3.188,2.848,5.771,5.978,6.549
		c0.642,0.159,1.288,0.236,1.93,0.236c2.491,0,4.888-1.167,6.419-3.225l24.408-32.811c6.278-8.437,11.205-17.712,14.649-27.577
		c3.434-9.877,5.241-19.998,5.372-30.085C487.987,287.289,474.987,259.068,451.879,241.274z M381.875,53.451
		c9.778-12.574,24.505-20.354,40.402-21.344c15.904-1,31.479,4.903,42.745,16.17c10.49,10.489,16.268,24.427,16.268,39.242
		c0,17.294-7.818,33.293-21.451,43.896l-25.665,19.961c-1.129-2.003-2.3-3.999-3.527-5.982
		c-7.525-12.198-16.896-23.938-27.853-34.896c-10.956-10.955-22.696-20.326-34.886-27.847c-1.987-1.229-3.985-2.402-5.992-3.533
		L381.875,53.451z M160.155,76.383l-31.391-4.824l17.456-12.986c7.176-5.329,15.008-9.49,23.277-12.366
		c8.249-2.869,16.675-4.379,25.045-4.487c0.413-0.005,0.822-0.008,1.232-0.008c23.201,0,44.01,8.463,58.506,23.569
		c-18.388,5.249-36.296,14.331-53.515,27.134C188.995,84.195,175.084,78.687,160.155,76.383z M68.741,245.726L39.2,252.027
		l8.422-15.709c3.496-6.524,8.077-12.333,13.616-17.263c5.536-4.927,11.863-8.823,18.8-11.578
		c11.208-4.443,23.21-6.356,35.214-5.686c-6.432,13.857-11.826,28.062-15.992,42.271C89.039,243.042,78.804,243.578,68.741,245.726z
		 M77.077,394.074l-3.322-1.66c12.231-2.295,23.916-6.874,34.439-13.485c3.463,5.219,7.379,10.036,11.757,14.413
		c2.914,2.914,6.025,5.619,9.314,8.129C111.677,404.692,93.346,402.205,77.077,394.074z M305.813,433.25
		c-2.75,6.933-6.646,13.259-11.579,18.802c-4.93,5.539-10.738,10.12-17.264,13.617l-15.708,8.421l6.302-29.54
		c2.15-10.075,2.689-20.309,1.672-30.518c14.207-4.166,28.41-9.558,42.264-15.989C312.171,410.051,310.258,422.05,305.813,433.25z
		 M387.645,326.467c-6.036,6.037-12.584,11.938-19.469,17.546c-30.104,24.585-66.979,44.041-103.831,54.784
		c-34.798,10.162-67.007,11.951-93.155,5.169c-16.111-4.176-29.544-11.557-39.925-21.938
		c-10.379-10.379-17.761-23.812-21.938-39.926c-6.78-26.145-4.993-58.356,5.17-93.157c10.743-36.849,30.199-73.723,54.79-103.836
		c5.603-6.877,11.504-13.425,17.54-19.46c23.3-23.301,48.07-38.61,73.629-45.505c10.322-2.792,20.739-4.179,31.147-4.179
		c23.096,0,46.133,6.832,67.895,20.298c11.143,6.875,21.903,15.471,31.981,25.55c10.08,10.079,18.676,20.84,25.556,31.991
		c19.529,31.561,25.102,65.806,16.113,99.038C426.255,278.396,410.945,303.167,387.645,326.467z M467.098,343.783
		c-2.905,8.322-7.069,16.158-12.377,23.291l-12.989,17.461l-4.824-31.39c-2.291-14.913-7.799-28.826-16.031-40.612
		c12.802-17.216,21.884-35.121,27.133-53.503c15.373,14.753,23.877,36.032,23.572,59.727
		C471.473,327.12,469.963,335.543,467.098,343.783z"/>
	<path d="M380.167,133.127c-8.87-8.869-18.419-16.419-28.374-22.434c-28.968-17.554-60.817-22.048-92.101-13
		c-23.422,6.759-46.057,20.945-67.277,42.165c-5.366,5.366-10.624,11.176-15.622,17.26c-21.781,26.456-39.252,58.685-49.193,90.747
		c-9.659,31.099-11.747,60.102-6.037,83.874c3.765,15.683,10.836,28.796,21.016,38.977c10.181,10.18,23.294,17.251,38.975,21.015
		c8.752,2.103,18.209,3.147,28.223,3.147c17.186,0,36.002-3.08,55.649-9.183c32.069-9.945,64.298-27.416,90.743-49.188
		c6.084-4.998,11.894-10.256,17.267-15.628c0,0,0.001,0,0.001-0.001c21.219-21.22,35.405-43.854,42.162-67.271
		c9.053-31.289,4.558-63.139-12.992-92.098C396.586,151.546,389.036,141.997,380.167,133.127z M368.186,211.655l-42.427,14.142
		l-38.263-38.263l14.142-42.426l42.427-14.142l38.263,38.263L368.186,211.655z M265.248,368.933l-17.349-17.35l14.142-42.425
		l42.425-14.142l34.607,34.607C316.9,346.559,291.125,360.301,265.248,368.933z M151.731,323.299l14.142-42.426l42.427-14.142
		l38.263,38.263l-14.142,42.426l-42.427,14.142L151.731,323.299z M183.672,174.221l34.606,34.606l-14.142,42.426l-42.426,14.142
		l-17.349-17.35C152.99,222.176,166.731,196.4,183.672,174.221z M300.303,279.538l-42.426,14.142l-38.263-38.263l14.142-42.427
		l42.426-14.142l38.263,38.263L300.303,279.538z M331.791,118.192l-34.316,11.439l-19.525-19.526
		c4.419-0.621,8.84-0.936,13.249-0.936C304.973,109.169,318.634,112.204,331.791,118.192z M259.682,114.466l26.479,26.479
		l-14.143,42.426l-42.425,14.142l-35.746-35.746c3.227-3.686,6.53-7.241,9.883-10.593
		C221.636,133.266,240.437,120.942,259.682,114.466z M139.297,265.611l11.099,11.099l-14.688,44.062
		C133.165,304.585,134.394,285.829,139.297,265.611z M138.349,332.545l42.399,42.399c-10.75-3.241-19.769-8.456-26.855-15.543
		C146.806,352.315,141.591,343.296,138.349,332.545z M192.52,377.586l44.065-14.688l11.099,11.099
		C227.465,378.9,208.708,380.13,192.52,377.586z M362.122,309.564c-3.356,3.355-6.911,6.657-10.595,9.883l-35.747-35.746
		l14.143-42.426l42.426-14.142l26.479,26.479C392.353,272.854,380.029,291.656,362.122,309.564z M403.185,235.341l-19.522-19.522
		l11.444-34.33C403.015,198.856,405.747,217.11,403.185,235.341z"/>
	<path d="M453.705,109.529c4.274,0,8.292-1.665,11.314-4.687c6.238-6.238,6.238-16.39,0-22.628c-6.239-6.238-16.391-6.238-22.628,0
		c-6.238,6.238-6.238,16.39-0.001,22.627C445.413,107.864,449.432,109.529,453.705,109.529z"/>
	<path d="M419.764,75.581c4.098,0,8.195-1.56,11.314-4.679c3.021-3.022,4.687-7.04,4.687-11.314c0-4.273-1.665-8.292-4.686-11.312
		c-3.022-3.022-7.041-4.688-11.314-4.688c-4.274,0-8.293,1.665-11.314,4.687c-6.238,6.238-6.238,16.39,0,22.628
		C411.569,74.021,415.667,75.581,419.764,75.581z"/>
</g>
</svg>
