<?xml version="1.0" ?><svg viewBox="0 0 64 64" xmlns="http://www.w3.org/2000/svg"><g id="Turtle"><path d="M48.62,23a7.44,7.44,0,0,0-4.43,1.5,19.61,19.61,0,0,0-36,10,3.36,3.36,0,0,0,1.15,6.51h.83l-.63,6.58A2.42,2.42,0,0,0,12,50.3h2.49A2.92,2.92,0,0,0,17.22,48a9.42,9.42,0,0,1,1.35-3.08A31.94,31.94,0,0,0,28.8,46.55,32,32,0,0,0,39,44.93,9.54,9.54,0,0,1,40.34,48a2.92,2.92,0,0,0,2.76,2.3h2.49a2.4,2.4,0,0,0,1.79-.79A2.45,2.45,0,0,0,48,47.66l-.65-6.8a3.36,3.36,0,0,0,2.27-3.16h0a7.36,7.36,0,0,0-1-14.66ZM28.81,34.34V26.87l6.5-2.5L39.63,30l-2.34,4.29Zm-2.08,0H18.34L16,30l4.32-5.67,6.5,2.5v7.47ZM10.74,31h3.47l1.85,3.4H10.22A17.33,17.33,0,0,1,10.74,31Zm30.67,0h3.47a17.91,17.91,0,0,1,.52,3.38H39.56Zm2.83-2H41.31l-4.66-6.12V20.1A17.68,17.68,0,0,1,44.24,29Zm-9.59-9.87v3.4L28,25.05h-.32L21,22.48v-3.4a17.64,17.64,0,0,1,13.68,0ZM19,20.1v2.73L14.31,29H11.38A17.68,17.68,0,0,1,19,20.1Zm-3.7,27.44a.94.94,0,0,1-.81.76H12a.43.43,0,0,1-.31-.13.42.42,0,0,1-.11-.32l.65-6.77h7.33A11.1,11.1,0,0,0,15.27,47.54ZM20,43.27a10.08,10.08,0,0,1,4.17-2.2H33.4a10,10,0,0,1,4.2,2.22,31.11,31.11,0,0,1-17.63,0Zm25.93,4.9a.43.43,0,0,1-.31.13H43.1a1,1,0,0,1-.82-.76A11.1,11.1,0,0,0,38,41.06h7.34L46,47.85A.42.42,0,0,1,45.9,48.17Zm.36-9.11-36.9,0a1.37,1.37,0,0,1,0-2.73l36.9,0a1.37,1.37,0,0,1,0,2.73ZM49,35.75a3.31,3.31,0,0,0-1.58-1.2,18.83,18.83,0,0,0-2.19-8.27A5.36,5.36,0,1,1,49,35.75Z"/></g></svg>